<svg id="svg" version="1.1" xmlns="http://www.w3.org/2000/svg" xmlns:xlink="http://www.w3.org/1999/xlink" width="400" height="399.90393852065324" viewBox="0, 0, 400,399.90393852065324"><g id="svgg"><path id="path0" d="M292.500 90.917 L 292.500 109.833 311.500 109.833 L 330.500 109.833 330.500 90.917 L 330.500 72.000 311.500 72.000 L 292.500 72.000 292.500 90.917 M139.833 124.827 C 138.679 125.200,130.072 127.896,123.833 129.839 C 107.532 134.915,91.428 139.944,88.750 140.794 C 87.396 141.223,86.909 141.511,83.750 143.748 C 78.314 147.598,68.494 154.540,60.167 160.418 C 55.996 163.362,50.746 167.074,48.500 168.666 C 43.950 171.891,35.299 178.004,34.215 178.760 C 33.347 179.366,33.346 179.324,34.221 180.562 C 35.426 182.270,41.464 190.772,43.172 193.167 C 44.055 194.404,45.040 195.792,45.361 196.250 C 45.683 196.708,47.547 199.333,49.503 202.083 C 51.460 204.833,53.859 208.208,54.835 209.583 C 55.810 210.958,58.846 215.233,61.581 219.083 C 64.316 222.933,67.352 227.208,68.329 228.583 C 77.276 241.185,79.573 244.341,79.748 244.274 C 79.858 244.232,81.254 243.822,82.849 243.364 C 84.445 242.905,87.212 242.105,89.000 241.585 C 90.787 241.065,93.900 240.161,95.917 239.576 C 97.933 238.991,101.158 238.055,103.083 237.496 C 107.113 236.324,110.025 235.479,115.417 233.916 C 117.525 233.305,120.487 232.444,122.000 232.004 C 123.513 231.564,127.000 230.552,129.750 229.756 C 132.500 228.960,135.875 227.982,137.250 227.583 C 138.625 227.184,141.212 226.436,143.000 225.922 C 146.803 224.827,145.908 225.532,150.833 219.747 C 152.621 217.647,155.434 214.352,157.084 212.423 C 158.735 210.495,162.259 206.367,164.916 203.250 C 167.573 200.133,169.944 197.358,170.186 197.083 C 170.427 196.808,172.899 193.921,175.678 190.667 C 178.457 187.412,182.328 182.886,184.279 180.608 L 187.826 176.466 186.519 175.025 C 185.799 174.232,184.440 172.721,183.498 171.667 C 182.556 170.612,181.511 169.450,181.177 169.083 C 180.842 168.717,179.937 167.704,179.164 166.833 C 178.391 165.962,177.717 165.212,177.666 165.167 C 177.615 165.121,176.302 163.658,174.749 161.917 C 173.195 160.175,171.883 158.712,171.833 158.667 C 171.784 158.621,170.475 157.158,168.924 155.417 C 167.373 153.675,165.724 151.836,165.260 151.330 C 164.796 150.824,163.817 149.738,163.083 148.916 C 162.350 148.095,161.445 147.084,161.073 146.670 C 158.147 143.417,152.577 137.198,150.246 134.583 C 148.693 132.842,147.251 131.229,147.042 131.000 C 146.832 130.771,145.443 129.219,143.955 127.551 C 142.467 125.884,141.137 124.522,141.000 124.525 C 140.862 124.528,140.337 124.664,139.833 124.827 M140.120 138.208 C 141.297 139.515,143.303 141.746,144.576 143.167 C 145.850 144.587,147.467 146.387,148.170 147.167 C 148.873 147.946,150.184 149.408,151.082 150.417 C 151.981 151.425,152.990 152.550,153.326 152.917 C 153.661 153.283,155.915 155.796,158.333 158.500 C 164.251 165.117,167.077 168.267,167.899 169.167 C 168.276 169.579,169.184 170.590,169.917 171.413 C 170.650 172.236,171.985 173.726,172.883 174.723 C 173.781 175.720,174.494 176.601,174.466 176.680 C 174.439 176.760,173.406 178.008,172.171 179.454 C 166.888 185.640,148.777 206.831,145.922 210.167 C 144.628 211.679,142.928 213.667,142.144 214.583 L 140.719 216.250 139.068 216.713 C 138.160 216.967,136.517 217.440,135.417 217.764 C 133.217 218.411,127.319 220.124,123.417 221.250 C 122.042 221.647,119.979 222.247,118.833 222.583 C 117.688 222.920,114.575 223.824,111.917 224.592 C 105.946 226.316,102.047 227.449,99.345 228.245 C 98.205 228.580,95.093 229.483,92.428 230.250 C 89.763 231.018,86.683 231.910,85.583 232.233 L 83.583 232.819 83.293 232.451 C 83.133 232.249,82.796 231.786,82.543 231.422 C 82.290 231.058,81.439 229.858,80.652 228.755 C 78.856 226.240,70.208 214.063,66.446 208.750 C 64.888 206.550,62.513 203.213,61.168 201.333 C 51.122 187.292,47.314 181.807,47.476 181.612 C 47.571 181.498,48.196 181.033,48.866 180.578 C 49.535 180.123,50.721 179.295,51.500 178.738 C 52.587 177.960,65.037 169.153,70.333 165.415 C 70.746 165.124,73.821 162.948,77.167 160.580 C 80.512 158.212,84.901 155.106,86.918 153.679 C 88.936 152.251,90.886 150.884,91.251 150.640 C 91.891 150.214,93.095 149.808,100.750 147.437 C 102.675 146.840,106.162 145.755,108.500 145.025 C 110.837 144.296,115.075 142.973,117.917 142.087 C 130.915 138.032,133.393 137.257,135.500 136.585 C 136.737 136.191,137.801 135.860,137.864 135.851 C 137.927 135.841,138.942 136.902,140.120 138.208 M311.278 165.474 C 311.018 166.268,310.514 167.742,310.157 168.750 C 309.800 169.758,308.524 173.433,307.322 176.917 C 306.121 180.400,304.176 186.025,303.000 189.417 C 301.824 192.808,299.888 198.396,298.697 201.833 C 297.507 205.271,295.818 210.146,294.945 212.667 C 294.072 215.188,292.597 219.463,291.667 222.167 C 290.737 224.871,289.723 227.796,289.414 228.667 C 289.104 229.537,288.129 232.350,287.246 234.917 C 286.363 237.483,285.390 240.296,285.085 241.167 C 284.779 242.037,283.805 244.850,282.919 247.417 C 282.033 249.983,281.058 252.796,280.752 253.667 C 280.149 255.384,278.016 261.552,275.335 269.333 C 274.403 272.037,273.429 274.850,273.169 275.583 C 272.909 276.317,271.934 279.129,271.001 281.833 C 270.069 284.537,268.331 289.563,267.140 293.000 C 265.949 296.438,264.261 301.313,263.388 303.833 C 262.516 306.354,261.553 309.129,261.249 310.000 C 260.945 310.871,259.974 313.683,259.091 316.250 C 258.208 318.817,257.234 321.629,256.927 322.500 C 255.582 326.319,254.333 329.942,254.333 330.028 C 254.333 330.079,261.440 330.172,270.125 330.234 C 278.810 330.295,297.804 330.452,312.333 330.582 C 326.862 330.711,344.918 330.866,352.456 330.926 L 366.162 331.035 366.010 330.559 C 365.926 330.298,365.296 328.358,364.610 326.250 C 363.307 322.249,360.352 313.149,358.225 306.583 C 357.542 304.475,356.880 302.450,356.754 302.083 C 356.629 301.717,355.762 299.054,354.829 296.167 C 353.895 293.279,352.774 289.829,352.338 288.500 C 351.901 287.171,351.241 285.146,350.871 284.000 C 350.500 282.854,349.635 280.192,348.949 278.083 C 348.263 275.975,346.935 271.887,346.000 269.000 C 345.064 266.112,343.941 262.662,343.505 261.333 C 343.068 260.004,342.396 257.942,342.011 256.750 C 341.625 255.558,340.760 252.896,340.087 250.833 C 339.415 248.771,338.099 244.721,337.164 241.833 C 336.228 238.946,335.254 235.946,335.000 235.167 C 334.745 234.387,334.073 232.325,333.507 230.583 C 332.940 228.842,331.925 225.729,331.252 223.667 C 330.578 221.604,329.262 217.554,328.328 214.667 C 327.394 211.779,326.421 208.779,326.166 208.000 C 325.912 207.221,325.240 205.158,324.673 203.417 C 324.107 201.675,323.092 198.563,322.419 196.500 C 321.746 194.438,320.321 190.050,319.252 186.750 C 318.184 183.450,317.206 180.450,317.079 180.083 C 316.799 179.269,313.025 167.637,312.403 165.667 C 311.814 163.804,311.824 163.806,311.278 165.474 M315.577 207.583 C 316.557 210.608,317.984 214.996,318.747 217.333 C 320.989 224.200,324.075 233.691,325.088 236.833 C 326.502 241.219,328.490 247.330,328.748 248.083 C 328.873 248.450,329.850 251.450,330.919 254.750 C 331.987 258.050,333.109 261.500,333.413 262.417 C 333.716 263.333,334.266 265.021,334.634 266.167 C 335.003 267.313,336.330 271.400,337.582 275.250 C 338.835 279.100,340.274 283.525,340.779 285.083 C 341.284 286.642,341.945 288.667,342.248 289.583 C 342.550 290.500,343.111 292.225,343.494 293.417 C 343.877 294.608,344.778 297.383,345.496 299.583 C 346.214 301.783,347.531 305.833,348.422 308.583 C 349.314 311.333,350.558 315.155,351.188 317.075 C 351.818 318.995,352.333 320.670,352.333 320.796 C 352.333 320.988,351.418 321.010,346.708 320.930 C 343.615 320.878,334.408 320.797,326.250 320.751 C 304.878 320.629,268.429 320.299,268.347 320.227 C 268.269 320.159,268.708 318.822,270.584 313.417 C 271.284 311.400,272.256 308.587,272.745 307.167 C 273.234 305.746,274.211 302.933,274.915 300.917 C 275.620 298.900,276.631 295.975,277.164 294.417 C 277.696 292.858,278.745 289.821,279.494 287.667 C 281.126 282.977,282.223 279.809,283.419 276.333 C 283.908 274.912,284.882 272.100,285.585 270.083 C 286.993 266.042,287.675 264.072,289.048 260.083 C 289.554 258.617,290.579 255.654,291.328 253.500 C 292.887 249.017,294.100 245.503,295.327 241.917 C 295.797 240.542,296.437 238.704,296.749 237.833 C 297.060 236.963,298.038 234.150,298.921 231.583 C 299.804 229.017,300.776 226.204,301.081 225.333 C 301.386 224.463,302.099 222.400,302.667 220.750 C 303.234 219.100,303.948 217.037,304.253 216.167 C 304.559 215.296,305.533 212.483,306.419 209.917 C 307.305 207.350,308.280 204.537,308.586 203.667 C 308.892 202.796,309.607 200.733,310.176 199.083 C 310.744 197.433,311.284 195.896,311.376 195.667 C 311.559 195.211,311.667 195.519,315.577 207.583 " stroke="none" fill="#fbfbfb" fill-rule="evenodd"></path><path id="path1" d="M301.958 71.958 C 307.206 71.983,315.794 71.983,321.042 71.958 C 326.290 71.934,321.996 71.914,311.500 71.914 C 301.004 71.914,296.710 71.934,301.958 71.958 M284.292 320.458 C 285.140 320.488,286.527 320.488,287.375 320.458 C 288.223 320.427,287.529 320.403,285.833 320.403 C 284.137 320.403,283.444 320.427,284.292 320.458 M301.867 320.624 C 302.664 320.654,304.014 320.655,304.867 320.624 C 305.719 320.594,305.067 320.569,303.417 320.569 C 301.767 320.569,301.069 320.593,301.867 320.624 M325.367 320.791 C 326.164 320.821,327.514 320.821,328.367 320.791 C 329.219 320.761,328.567 320.736,326.917 320.736 C 325.267 320.735,324.569 320.760,325.367 320.791 M290.033 330.457 C 290.831 330.488,292.181 330.488,293.033 330.458 C 293.886 330.427,293.233 330.402,291.583 330.402 C 289.933 330.402,289.236 330.427,290.033 330.457 M307.700 330.624 C 308.497 330.654,309.847 330.655,310.700 330.624 C 311.552 330.594,310.900 330.569,309.250 330.569 C 307.600 330.569,306.902 330.593,307.700 330.624 M349.042 330.957 C 349.844 330.988,351.156 330.988,351.958 330.957 C 352.760 330.927,352.104 330.902,350.500 330.902 C 348.896 330.902,348.240 330.927,349.042 330.957 " stroke="none" fill="#848484" fill-rule="evenodd"></path><path id="path2" d="M292.414 90.833 C 292.414 101.329,292.434 105.623,292.458 100.375 C 292.483 95.127,292.483 86.540,292.458 81.292 C 292.434 76.044,292.414 80.337,292.414 90.833 M290.200 320.457 C 290.997 320.488,292.347 320.488,293.200 320.458 C 294.052 320.427,293.400 320.402,291.750 320.402 C 290.100 320.402,289.402 320.427,290.200 320.457 M309.375 320.625 C 311.002 320.652,313.665 320.652,315.292 320.625 C 316.919 320.597,315.587 320.575,312.333 320.575 C 309.079 320.575,307.748 320.597,309.375 320.625 M284.125 330.458 C 284.973 330.488,286.360 330.488,287.208 330.458 C 288.056 330.427,287.362 330.403,285.667 330.403 C 283.971 330.403,283.277 330.427,284.125 330.458 M301.867 330.624 C 302.664 330.654,304.014 330.655,304.867 330.624 C 305.719 330.594,305.067 330.569,303.417 330.569 C 301.767 330.569,301.069 330.593,301.867 330.624 M361.051 331.124 C 362.041 331.154,363.616 331.154,364.551 331.124 C 365.485 331.095,364.675 331.070,362.750 331.071 C 360.825 331.071,360.060 331.095,361.051 331.124 " stroke="none" fill="#444444" fill-rule="evenodd"></path><path id="path3" d="M17.333 0.113 C 11.842 1.016,7.130 3.857,3.855 8.240 C 3.031 9.341,1.334 12.467,1.332 12.885 C 1.332 12.994,1.221 13.294,1.087 13.551 C 0.825 14.055,0.386 15.852,0.165 17.333 C -0.016 18.545,-0.017 381.506,0.164 382.583 C 0.397 383.970,0.855 385.906,0.992 386.083 C 1.063 386.175,1.174 386.475,1.239 386.750 C 1.901 389.542,5.068 393.658,8.583 396.294 C 9.979 397.341,12.728 398.616,15.083 399.309 L 16.583 399.750 200.000 399.750 L 383.417 399.750 384.917 399.305 C 386.572 398.814,389.096 397.804,389.383 397.517 C 389.484 397.416,389.628 397.333,389.704 397.333 C 389.825 397.333,390.973 396.632,391.417 396.287 C 391.508 396.216,391.997 395.841,392.503 395.454 C 393.873 394.406,394.683 393.547,396.465 391.250 C 397.486 389.935,398.932 386.639,399.537 384.250 L 399.917 382.750 399.917 199.917 L 399.917 17.083 399.519 15.500 C 399.301 14.629,399.057 13.845,398.978 13.758 C 398.898 13.671,398.833 13.480,398.833 13.333 C 398.833 12.751,396.949 9.300,395.867 7.901 C 392.950 4.128,389.333 1.762,384.500 0.464 L 383.083 0.083 200.417 0.064 C 99.950 0.054,17.563 0.076,17.333 0.113 M330.500 90.833 L 330.500 109.833 311.417 109.833 L 292.333 109.833 292.333 90.833 L 292.333 71.833 311.417 71.833 L 330.500 71.833 330.500 90.833 M144.026 127.542 C 145.613 129.306,146.951 130.787,147.001 130.833 C 147.050 130.879,148.323 132.304,149.830 134.000 C 151.337 135.696,152.612 137.121,152.663 137.167 C 152.714 137.212,153.691 138.300,154.833 139.583 C 155.976 140.867,156.951 141.954,157.001 142.000 C 157.050 142.046,158.096 143.208,159.324 144.583 C 163.461 149.216,164.081 149.907,164.927 150.830 C 165.391 151.336,167.040 153.175,168.590 154.917 C 170.141 156.658,171.452 158.121,171.503 158.167 C 171.553 158.212,173.130 159.972,175.006 162.077 C 176.882 164.182,178.529 166.025,178.667 166.171 C 178.989 166.515,181.002 168.755,183.081 171.083 C 183.982 172.092,185.325 173.583,186.067 174.398 C 187.892 176.402,187.925 176.453,187.623 176.802 C 187.490 176.957,185.973 178.733,184.253 180.750 C 182.533 182.767,180.771 184.829,180.337 185.333 C 179.211 186.644,175.979 190.430,173.010 193.917 C 171.605 195.567,170.259 197.142,170.019 197.418 C 169.779 197.694,169.171 198.407,168.668 199.002 C 168.164 199.597,167.714 200.121,167.667 200.167 C 167.578 200.255,166.482 201.535,161.891 206.917 C 157.096 212.537,147.833 223.370,147.095 224.220 C 146.407 225.014,146.365 225.034,143.824 225.771 C 140.638 226.695,134.140 228.574,128.417 230.228 C 126.033 230.917,122.771 231.865,121.167 232.335 C 117.078 233.534,113.758 234.498,108.833 235.916 C 106.496 236.589,103.383 237.492,101.917 237.922 C 100.450 238.353,97.975 239.079,96.417 239.536 C 94.858 239.993,93.096 240.500,92.500 240.664 C 91.904 240.827,89.992 241.377,88.250 241.885 C 86.508 242.394,83.907 243.152,82.469 243.571 C 81.031 243.991,79.753 244.333,79.628 244.333 C 79.504 244.333,78.355 242.854,77.076 241.047 C 73.754 236.353,72.198 234.163,70.768 232.167 C 70.078 231.204,68.693 229.254,67.690 227.833 C 66.687 226.412,65.571 224.838,65.210 224.333 C 64.850 223.829,62.504 220.529,59.998 217.000 C 57.492 213.471,54.081 208.671,52.419 206.333 C 50.756 203.996,48.094 200.246,46.503 198.000 C 44.912 195.754,43.117 193.225,42.513 192.380 C 41.910 191.535,40.845 190.035,40.146 189.047 C 39.447 188.059,37.629 185.504,36.104 183.370 C 34.580 181.236,33.335 179.436,33.336 179.370 C 33.338 179.304,35.869 177.472,38.961 175.299 C 44.501 171.407,47.956 168.967,55.667 163.502 C 57.821 161.975,60.071 160.387,60.667 159.973 C 61.262 159.559,62.425 158.733,63.250 158.138 C 64.075 157.544,67.037 155.443,69.833 153.472 C 72.629 151.500,77.654 147.948,81.000 145.580 C 85.781 142.195,87.315 141.193,88.167 140.901 C 89.189 140.550,91.112 139.945,96.333 138.331 C 97.571 137.948,98.883 137.535,99.250 137.412 C 99.617 137.290,100.929 136.879,102.167 136.500 C 103.404 136.121,105.204 135.562,106.167 135.256 C 107.129 134.951,108.592 134.499,109.417 134.252 C 110.242 134.005,111.104 133.737,111.333 133.656 C 111.563 133.576,113.100 133.092,114.750 132.580 C 121.721 130.419,122.615 130.139,123.250 129.926 C 123.617 129.803,124.592 129.500,125.417 129.252 C 126.242 129.005,127.217 128.702,127.583 128.579 C 127.950 128.457,129.262 128.045,130.500 127.664 C 132.472 127.058,134.731 126.351,139.750 124.769 C 140.483 124.538,141.096 124.345,141.112 124.341 C 141.128 124.337,142.440 125.777,144.026 127.542 M136.083 136.497 C 135.258 136.760,132.783 137.536,130.583 138.221 C 128.383 138.906,125.833 139.703,124.917 139.992 C 122.859 140.640,121.865 140.950,119.000 141.836 C 117.763 142.218,116.450 142.632,116.083 142.755 C 115.717 142.877,114.742 143.178,113.917 143.423 C 113.092 143.668,112.117 143.970,111.750 144.093 C 111.122 144.304,105.563 146.041,100.750 147.530 C 97.140 148.646,96.445 148.863,95.750 149.092 C 95.383 149.213,94.333 149.544,93.417 149.827 C 91.931 150.287,91.506 150.516,89.500 151.949 C 88.263 152.833,85.000 155.143,82.250 157.082 C 79.500 159.022,75.787 161.647,74.000 162.915 C 70.730 165.236,70.194 165.615,67.750 167.336 C 64.842 169.385,50.892 179.261,49.333 180.376 C 48.829 180.736,48.173 181.181,47.875 181.365 L 47.334 181.699 48.286 183.058 C 48.810 183.805,50.520 186.217,52.087 188.417 C 53.653 190.617,56.426 194.517,58.249 197.083 C 61.430 201.562,62.268 202.741,64.970 206.536 C 66.352 208.477,69.370 212.725,71.220 215.333 C 71.902 216.296,73.954 219.183,75.779 221.750 C 77.605 224.317,80.102 227.829,81.330 229.555 C 83.194 232.178,83.617 232.681,83.905 232.615 C 84.095 232.571,85.712 232.108,87.500 231.585 C 89.287 231.063,91.237 230.500,91.833 230.335 C 92.429 230.169,93.592 229.833,94.417 229.587 C 95.242 229.341,97.061 228.809,98.459 228.405 C 99.857 228.000,102.182 227.325,103.625 226.905 C 106.135 226.174,108.742 225.419,115.625 223.430 C 118.487 222.603,119.992 222.164,124.250 220.914 C 125.075 220.672,127.156 220.067,128.875 219.570 C 130.594 219.073,133.444 218.247,135.208 217.735 C 136.973 217.222,138.829 216.690,139.332 216.552 C 140.736 216.168,140.705 216.198,145.103 211.001 C 145.935 210.018,148.619 206.875,149.019 206.417 C 149.258 206.142,150.636 204.529,152.081 202.833 C 153.526 201.137,154.905 199.524,155.145 199.248 C 155.386 198.972,155.996 198.261,156.500 197.667 C 157.004 197.073,157.614 196.361,157.856 196.085 C 158.098 195.809,159.890 193.708,161.838 191.417 C 163.785 189.125,165.736 186.838,166.173 186.333 C 166.609 185.829,168.660 183.438,170.730 181.020 L 174.494 176.624 173.637 175.687 C 173.166 175.172,171.915 173.775,170.856 172.583 C 169.798 171.392,168.215 169.629,167.339 168.667 C 166.462 167.704,165.147 166.242,164.415 165.417 C 163.683 164.592,162.777 163.579,162.401 163.167 C 162.026 162.754,160.343 160.879,158.662 159.000 C 156.981 157.121,155.064 154.980,154.401 154.242 C 153.739 153.504,152.130 151.704,150.826 150.242 C 149.522 148.780,148.181 147.283,147.846 146.917 C 146.518 145.462,144.122 142.793,142.009 140.417 C 138.969 136.997,138.011 135.998,137.780 136.010 C 137.672 136.015,136.908 136.234,136.083 136.497 M312.000 164.031 C 312.000 164.203,313.425 168.634,316.170 177.000 C 316.904 179.236,317.968 182.510,322.507 196.500 C 323.444 199.387,324.568 202.838,325.004 204.167 C 325.441 205.496,326.561 208.946,327.494 211.833 C 328.426 214.721,329.292 217.383,329.418 217.750 C 329.698 218.566,331.495 224.091,334.079 232.083 C 335.146 235.383,336.122 238.383,336.247 238.750 C 336.373 239.117,337.388 242.229,338.503 245.667 C 339.618 249.104,340.741 252.554,340.998 253.333 C 341.444 254.686,343.735 261.743,345.869 268.333 C 346.418 270.029,347.077 272.054,347.333 272.833 C 347.589 273.612,348.564 276.612,349.501 279.500 C 350.437 282.387,351.560 285.837,351.996 287.167 C 352.433 288.496,353.555 291.946,354.490 294.833 C 355.425 297.721,356.293 300.383,356.419 300.750 C 356.545 301.117,357.411 303.779,358.343 306.667 C 359.274 309.554,360.395 313.004,360.833 314.333 C 361.271 315.662,362.357 319.000,363.247 321.750 C 364.137 324.500,365.158 327.646,365.516 328.740 C 365.874 329.835,366.167 330.840,366.167 330.975 C 366.167 331.188,365.510 331.206,361.208 331.110 C 358.481 331.050,341.325 330.888,323.083 330.751 C 304.842 330.613,283.017 330.427,274.583 330.335 C 266.150 330.244,258.111 330.169,256.720 330.168 L 254.190 330.167 254.831 328.292 C 255.184 327.260,256.085 324.654,256.833 322.500 C 257.580 320.346,258.291 318.283,258.412 317.917 C 258.533 317.550,259.211 315.600,259.917 313.583 C 260.624 311.567,261.336 309.504,261.500 309.000 C 261.664 308.496,262.223 306.883,262.743 305.417 C 263.264 303.950,263.826 302.337,263.994 301.833 C 264.350 300.765,265.619 297.094,267.423 291.917 C 268.125 289.900,269.137 286.975,269.672 285.417 C 270.206 283.858,270.906 281.833,271.226 280.917 C 271.546 280.000,272.521 277.188,273.391 274.667 C 274.262 272.146,275.550 268.433,276.255 266.417 C 276.959 264.400,277.670 262.337,277.835 261.833 C 278.000 261.329,278.712 259.267,279.418 257.250 C 280.124 255.233,281.101 252.421,281.589 251.000 C 282.078 249.579,282.777 247.554,283.144 246.500 C 283.510 245.446,284.383 242.933,285.084 240.917 C 285.785 238.900,286.495 236.838,286.662 236.333 C 286.830 235.829,287.542 233.767,288.245 231.750 C 288.949 229.733,289.925 226.921,290.414 225.500 C 290.904 224.079,291.916 221.154,292.665 219.000 C 293.413 216.846,294.125 214.783,294.247 214.417 C 294.368 214.050,294.769 212.887,295.138 211.833 C 296.872 206.868,298.380 202.522,298.580 201.917 C 298.700 201.550,299.415 199.487,300.167 197.333 C 300.919 195.179,301.934 192.254,302.421 190.833 C 302.909 189.412,303.883 186.600,304.586 184.583 C 305.290 182.567,305.965 180.617,306.088 180.250 C 306.210 179.883,306.610 178.721,306.977 177.667 C 307.951 174.866,310.242 168.233,311.049 165.875 C 311.668 164.066,312.000 163.423,312.000 164.031 M311.445 195.667 C 310.665 197.886,310.022 199.740,309.245 202.000 C 308.725 203.512,308.013 205.575,307.661 206.583 C 306.382 210.256,305.846 211.803,304.918 214.500 C 303.409 218.888,302.688 220.972,302.093 222.667 C 301.786 223.537,301.032 225.713,300.417 227.500 C 299.801 229.287,299.087 231.350,298.829 232.083 C 298.004 234.431,295.130 242.735,294.993 243.167 C 294.921 243.396,294.248 245.346,293.497 247.500 C 292.747 249.654,292.034 251.717,291.913 252.083 C 291.792 252.450,291.118 254.400,290.415 256.417 C 289.712 258.433,288.735 261.246,288.243 262.667 C 287.752 264.087,286.739 267.012,285.992 269.167 C 285.245 271.321,284.232 274.246,283.742 275.667 C 283.252 277.087,282.277 279.900,281.575 281.917 C 280.874 283.933,279.887 286.783,279.382 288.250 C 278.877 289.717,278.178 291.742,277.829 292.750 C 277.480 293.758,276.482 296.646,275.612 299.167 C 274.742 301.688,273.453 305.400,272.749 307.417 C 272.045 309.433,271.334 311.496,271.169 312.000 C 271.004 312.504,270.303 314.540,269.612 316.524 L 268.356 320.132 271.219 320.229 C 272.795 320.283,282.446 320.367,292.667 320.415 C 302.887 320.464,317.400 320.583,324.917 320.680 C 332.433 320.778,341.669 320.833,345.440 320.804 L 352.297 320.750 351.643 318.750 C 349.933 313.522,348.648 309.576,345.080 298.583 C 344.008 295.283,342.775 291.496,342.338 290.167 C 341.902 288.837,341.241 286.813,340.871 285.667 C 340.500 284.521,339.673 281.971,339.034 280.000 C 335.038 267.692,334.251 265.272,333.831 264.000 C 333.574 263.221,332.711 260.558,331.913 258.083 C 331.116 255.608,330.104 252.496,329.665 251.167 C 329.226 249.838,328.101 246.387,327.165 243.500 C 326.229 240.612,325.254 237.612,324.998 236.833 C 324.742 236.054,323.768 233.054,322.833 230.167 C 321.898 227.279,320.884 224.167,320.579 223.250 C 320.275 222.333,319.301 219.333,318.415 216.583 C 317.528 213.833,316.554 210.833,316.251 209.917 C 315.947 209.000,314.944 205.925,314.022 203.083 C 313.101 200.242,312.163 197.354,311.940 196.667 C 311.716 195.979,311.493 195.529,311.445 195.667 " stroke="none" fill="#040404" fill-rule="evenodd"></path><path id="path4" d="M268.958 320.289 C 269.348 320.324,269.985 320.324,270.375 320.289 C 270.765 320.254,270.446 320.225,269.667 320.225 C 268.887 320.225,268.569 320.254,268.958 320.289 M348.792 320.957 C 349.456 320.989,350.544 320.989,351.208 320.957 C 351.873 320.925,351.329 320.900,350.000 320.900 C 348.671 320.900,348.127 320.925,348.792 320.957 M266.533 330.291 C 267.331 330.321,268.681 330.321,269.533 330.291 C 270.386 330.261,269.733 330.236,268.083 330.236 C 266.433 330.235,265.736 330.260,266.533 330.291 M325.367 330.791 C 326.164 330.821,327.514 330.821,328.367 330.791 C 329.219 330.761,328.567 330.736,326.917 330.736 C 325.267 330.735,324.569 330.760,325.367 330.791 " stroke="none" fill="#7c7c7c" fill-rule="evenodd"></path></g></svg>